<?xml version="1.0" encoding="UTF-8" standalone="no"?>
<svg
   xmlns:dc="http://purl.org/dc/elements/1.1/"
   xmlns:cc="http://creativecommons.org/ns#"
   xmlns:rdf="http://www.w3.org/1999/02/22-rdf-syntax-ns#"
   xmlns:svg="http://www.w3.org/2000/svg"
   xmlns="http://www.w3.org/2000/svg"
   xmlns:sodipodi="http://sodipodi.sourceforge.net/DTD/sodipodi-0.dtd"
   xmlns:inkscape="http://www.inkscape.org/namespaces/inkscape"
   height="30"
   width="30"
   id="svg4"
   version="1.1"
   viewBox="0 -28 30.000001 30"
   sodipodi:docname="heart-inline.svg"
   inkscape:version="0.92.5 (2060ec1f9f, 2020-04-08)">
  <sodipodi:namedview
     pagecolor="#ffffff"
     bordercolor="#666666"
     borderopacity="1"
     objecttolerance="10"
     gridtolerance="10"
     guidetolerance="10"
     inkscape:pageopacity="0"
     inkscape:pageshadow="2"
     inkscape:window-width="1330"
     inkscape:window-height="740"
     id="namedview6"
     showgrid="false"
     inkscape:zoom="7.8666667"
     inkscape:cx="-2.7966106"
     inkscape:cy="15"
     inkscape:window-x="36"
     inkscape:window-y="0"
     inkscape:window-maximized="1"
     inkscape:current-layer="svg4" />
  <metadata
     id="metadata10">
    <rdf:RDF>
      <cc:Work
         rdf:about="">
        <dc:format>image/svg+xml</dc:format>
        <dc:type
           rdf:resource="http://purl.org/dc/dcmitype/StillImage" />
        <dc:title />
      </cc:Work>
    </rdf:RDF>
  </metadata>
  <defs
     id="defs8" />
  <path
     style="fill:#1a1a1a;fill-opacity:1;stroke-width:0.05185083"
     id="path2"
     d="m 15,-1.190564 c -0.377944,0 -0.742318,-0.1369182 -1.026282,-0.3856397 -1.072461,-0.9377699 -2.106439,-1.819035 -3.018691,-2.5963915 l -0.0046,-0.00409 C 8.2757986,-6.4558615 5.9662084,-8.4241695 4.3592376,-10.363107 c -1.7963475,-2.167609 -2.6330499,-4.222802 -2.6330499,-6.467985 0,-2.181384 0.7479887,-4.19384 2.1060349,-5.66693 1.3742495,-1.490511 3.2599184,-2.311414 5.3102537,-2.311414 1.5324357,0 2.9358497,0.484484 4.1711567,1.439875 0.623424,0.482252 1.188518,1.072461 1.686367,1.760904 0.498051,-0.688443 1.062944,-1.278652 1.686569,-1.760904 1.235307,-0.955391 2.638722,-1.439875 4.171159,-1.439875 2.05013,0 3.936004,0.820903 5.310252,2.311414 1.358046,1.47309 2.105832,3.485546 2.105832,5.66693 0,2.245183 -0.836499,4.300376 -2.632847,6.467782 -1.606969,1.9391406 -3.916358,3.9072441 -6.590523,6.1862489 C 18.13657,-3.3984865 17.100971,-2.515806 16.02608,-1.5758102 15.742318,-1.3274908 15.377742,-1.1905728 15,-1.1905728 Z m -5.8575227,-22.06374 c -1.6108195,0 -3.0905934,0.642868 -4.1671057,1.810322 -1.0925131,1.185075 -1.6942665,2.823232 -1.6942665,4.6129 0,1.888299 0.7018092,3.5771 2.2753605,5.475732 1.5208903,1.8352343 3.7830847,3.7630311 6.4023614,5.9952498 l 0.0048,0.00409 c 0.915693,0.7803988 1.953723,1.6651016 3.034083,2.6097594 1.086842,-0.9464817 2.126491,-1.8326064 3.04401,-2.6142167 2.619073,-2.2322186 4.881064,-4.1596065 6.401955,-5.9948465 1.573349,-1.898634 2.275157,-3.587428 2.275157,-5.475727 0,-1.789667 -0.601752,-3.427829 -1.694265,-4.612903 -1.07631,-1.167456 -2.556287,-1.810325 -4.166902,-1.810325 -1.180013,0 -2.263411,0.37511 -3.220019,1.114795 -0.8525,0.659476 -1.446354,1.493139 -1.794524,2.076463 -0.179049,0.299964 -0.494204,0.479012 -0.843185,0.479012 -0.348979,0 -0.664135,-0.179048 -0.843183,-0.479012 -0.347967,-0.583324 -0.941821,-1.416987 -1.794524,-2.076463 -0.956609,-0.739685 -2.040006,-1.114795 -3.2198147,-1.114795 z m 0,0"
     inkscape:connector-curvature="0" />
</svg>
