<?xml version="1.0" encoding="UTF-8" standalone="no"?>
<svg
   xmlns:dc="http://purl.org/dc/elements/1.1/"
   xmlns:cc="http://creativecommons.org/ns#"
   xmlns:rdf="http://www.w3.org/1999/02/22-rdf-syntax-ns#"
   xmlns:svg="http://www.w3.org/2000/svg"
   xmlns="http://www.w3.org/2000/svg"
   xmlns:sodipodi="http://sodipodi.sourceforge.net/DTD/sodipodi-0.dtd"
   xmlns:inkscape="http://www.inkscape.org/namespaces/inkscape"
   height="30"
   width="30"
   id="svg4"
   version="1.1"
   viewBox="0 -28 30.000001 30"
   sodipodi:docname="heart-inline.svg"
   inkscape:version="0.92.5 (2060ec1f9f, 2020-04-08)">
  <sodipodi:namedview
     pagecolor="#ffffff"
     bordercolor="#666666"
     borderopacity="1"
     objecttolerance="10"
     gridtolerance="10"
     guidetolerance="10"
     inkscape:pageopacity="0"
     inkscape:pageshadow="2"
     inkscape:window-width="1330"
     inkscape:window-height="740"
     id="namedview6"
     showgrid="false"
     inkscape:zoom="7.8666667"
     inkscape:cx="-21.991526"
     inkscape:cy="15"
     inkscape:window-x="36"
     inkscape:window-y="0"
     inkscape:window-maximized="1"
     inkscape:current-layer="svg4" />
  <metadata
     id="metadata10">
    <rdf:RDF>
      <cc:Work
         rdf:about="">
        <dc:format>image/svg+xml</dc:format>
        <dc:type
           rdf:resource="http://purl.org/dc/dcmitype/StillImage" />
        <dc:title></dc:title>
      </cc:Work>
    </rdf:RDF>
  </metadata>
  <defs
     id="defs8" />
  <path
     style="fill:#1a1a1a;fill-opacity:1;stroke-width:0.05017644"
     id="path2"
     d="m 15.000001,-1.5719191 c -0.365739,0 -0.718347,-0.1324967 -0.993141,-0.3731864 -1.037828,-0.9074871 -2.038417,-1.7602938 -2.92121,-2.5125475 l -0.0045,-0.00396 C 8.4929404,-6.6671894 6.2579324,-8.5719353 4.7028547,-10.44826 c -1.7383392,-2.097611 -2.5480222,-4.086438 -2.5480222,-6.259118 0,-2.110942 0.723834,-4.058411 2.0380257,-5.48393 1.3298718,-1.442378 3.1546481,-2.236773 5.1387723,-2.236773 1.4829505,0 2.8410435,0.468839 4.0364595,1.393378 0.603293,0.466679 1.150139,1.037829 1.631911,1.70404 0.481968,-0.666211 1.028618,-1.237361 1.632105,-1.70404 1.195416,-0.924539 2.553511,-1.393378 4.036462,-1.393378 1.983926,0 3.8089,0.794395 5.13877,2.236773 1.314191,1.425519 2.037829,3.372988 2.037829,5.48393 0,2.17268 -0.809486,4.161507 -2.547826,6.258922 -1.555075,1.8765208 -3.789889,3.7810688 -6.377698,5.9864788 -0.884361,0.7534326 -1.886518,1.6076091 -2.926698,2.5172501 C 15.718347,-1.7044266 15.365543,-1.57193 15,-1.57193 Z M 9.3316315,-22.923166 c -1.5588026,0 -2.9907904,0.622108 -4.0325396,1.751862 -1.0572328,1.146807 -1.6395541,2.732063 -1.6395541,4.463938 0,1.827322 0.6791459,3.461587 2.2018836,5.298907 1.4717762,1.7759699 3.6609191,3.6415136 6.1956136,5.8016484 l 0.0047,0.00396 c 0.886123,0.7551977 1.890633,1.6113313 2.936106,2.5254837 1.051745,-0.9159175 2.057821,-1.773427 2.945711,-2.5297971 2.534496,-2.1601347 4.723442,-4.025283 6.195219,-5.801257 1.522543,-1.837323 2.201687,-3.471582 2.201687,-5.298902 0,-1.731875 -0.58232,-3.317137 -1.639553,-4.463941 -1.041554,-1.129757 -2.473738,-1.751866 -4.032343,-1.751866 -1.141907,0 -2.19032,0.362997 -3.116036,1.078796 -0.824972,0.63818 -1.399648,1.444921 -1.736574,2.009409 -0.173267,0.290277 -0.478246,0.463543 -0.815957,0.463543 -0.33771,0 -0.642688,-0.173266 -0.815954,-0.463543 -0.336731,-0.564488 -0.911407,-1.371229 -1.736575,-2.009409 -0.925718,-0.715799 -1.974128,-1.078796 -3.1158385,-1.078796 z m 0,0"
     inkscape:connector-curvature="0" />
</svg>
