<?xml version="1.0" encoding="UTF-8" standalone="no"?>
<svg
   xmlns:dc="http://purl.org/dc/elements/1.1/"
   xmlns:cc="http://creativecommons.org/ns#"
   xmlns:rdf="http://www.w3.org/1999/02/22-rdf-syntax-ns#"
   xmlns:svg="http://www.w3.org/2000/svg"
   xmlns="http://www.w3.org/2000/svg"
   xmlns:sodipodi="http://sodipodi.sourceforge.net/DTD/sodipodi-0.dtd"
   xmlns:inkscape="http://www.inkscape.org/namespaces/inkscape"
   viewBox="0 -28 30.000001 30"
   version="1.1"
   id="svg4"
   sodipodi:docname="love-fullfilled.svg"
   width="30"
   height="30"
   inkscape:version="0.92.5 (2060ec1f9f, 2020-04-08)">
  <metadata
     id="metadata10">
    <rdf:RDF>
      <cc:Work
         rdf:about="">
        <dc:format>image/svg+xml</dc:format>
        <dc:type
           rdf:resource="http://purl.org/dc/dcmitype/StillImage" />
        <dc:title></dc:title>
      </cc:Work>
    </rdf:RDF>
  </metadata>
  <defs
     id="defs8" />
  <sodipodi:namedview
     pagecolor="#ffffff"
     bordercolor="#666666"
     borderopacity="1"
     objecttolerance="10"
     gridtolerance="10"
     guidetolerance="10"
     inkscape:pageopacity="0"
     inkscape:pageshadow="2"
     inkscape:window-width="1330"
     inkscape:window-height="740"
     id="namedview6"
     showgrid="false"
     inkscape:zoom="5.2149126"
     inkscape:cx="20.847091"
     inkscape:cy="28.095806"
     inkscape:window-x="36"
     inkscape:window-y="0"
     inkscape:window-maximized="1"
     inkscape:current-layer="svg4" />
  <path
     d="m 26.112834,-21.138581 c -1.27466,-1.3825 -3.023676,-2.143919 -4.925238,-2.143919 -1.421381,0 -2.723093,0.449373 -3.869065,1.335536 -0.578247,0.447306 -1.102199,0.994556 -1.564157,1.633297 -0.461772,-0.638554 -0.985913,-1.185991 -1.564346,-1.633297 -1.145785,-0.886163 -2.447496,-1.335536 -3.868877,-1.335536 -1.9015626,0 -3.6507669,0.761419 -4.9254261,2.143919 -1.2594421,1.366335 -1.953225,3.232964 -1.953225,5.256273 0,2.082481 0.7760674,3.988747 2.4422358,5.9992784 1.4905153,1.7984316 3.6327315,3.6241028 6.1134793,5.7381467 0.84708,0.7219603 1.807255,1.5402988 2.804251,2.4119988 0.263384,0.2306978 0.601353,0.3576886 0.951908,0.3576886 0.350367,0 0.688521,-0.1269909 0.951531,-0.3573158 0.996996,-0.8718782 1.957734,-1.6905978 2.80519,-2.4129392 2.480372,-2.1136709 4.622588,-3.9391475 6.113103,-5.7377656 1.666168,-2.0103449 2.442048,-3.9166109 2.442048,-5.9992869 0,-2.023114 -0.693782,-3.889743 -1.953412,-5.256078 z m 0,0"
     id="path2"
     inkscape:connector-curvature="0"
     style="fill:#1a1a1a;stroke-width:0.04809335" />
</svg>
