<?xml version="1.0" encoding="UTF-8" standalone="no"?>
<svg
   xmlns:dc="http://purl.org/dc/elements/1.1/"
   xmlns:cc="http://creativecommons.org/ns#"
   xmlns:rdf="http://www.w3.org/1999/02/22-rdf-syntax-ns#"
   xmlns:svg="http://www.w3.org/2000/svg"
   xmlns="http://www.w3.org/2000/svg"
   xmlns:sodipodi="http://sodipodi.sourceforge.net/DTD/sodipodi-0.dtd"
   xmlns:inkscape="http://www.inkscape.org/namespaces/inkscape"
   viewBox="0 -28 30.000001 30"
   version="1.1"
   id="svg4"
   sodipodi:docname="love-fullfilled.svg"
   width="30"
   height="30"
   inkscape:version="0.92.5 (2060ec1f9f, 2020-04-08)">
  <metadata
     id="metadata10">
    <rdf:RDF>
      <cc:Work
         rdf:about="">
        <dc:format>image/svg+xml</dc:format>
        <dc:type
           rdf:resource="http://purl.org/dc/dcmitype/StillImage" />
        <dc:title></dc:title>
      </cc:Work>
    </rdf:RDF>
  </metadata>
  <defs
     id="defs8" />
  <sodipodi:namedview
     pagecolor="#ffffff"
     bordercolor="#666666"
     borderopacity="1"
     objecttolerance="10"
     gridtolerance="10"
     guidetolerance="10"
     inkscape:pageopacity="0"
     inkscape:pageshadow="2"
     inkscape:window-width="1330"
     inkscape:window-height="740"
     id="namedview6"
     showgrid="false"
     inkscape:zoom="5.2149126"
     inkscape:cx="49.802514"
     inkscape:cy="28.095806"
     inkscape:window-x="36"
     inkscape:window-y="0"
     inkscape:window-maximized="1"
     inkscape:current-layer="svg4" />
  <path
     d="m 24.723777,-21.269943 c -1.196559,-1.297792 -2.838409,-2.012557 -4.623459,-2.012557 -1.33429,0 -2.556243,0.421839 -3.631999,1.253705 -0.542817,0.419899 -1.034665,0.933618 -1.468318,1.533222 -0.433478,-0.599429 -0.925504,-1.113323 -1.468496,-1.533222 -1.07558,-0.831866 -2.297533,-1.253705 -3.6318231,-1.253705 -1.7850497,0 -3.4270767,0.714765 -4.623635,2.012557 -1.1822736,1.282617 -1.833547,3.034874 -1.833547,4.93421 0,1.954884 0.7285162,3.744349 2.2925951,5.631691 1.3991885,1.6882381 3.4101468,3.4020468 5.738894,5.386559 0.795178,0.6777244 1.696521,1.4459216 2.632429,2.2642108 0.247246,0.2165625 0.564507,0.3357723 0.893583,0.3357723 0.328899,0 0.646334,-0.1192099 0.893229,-0.3354223 0.935908,-0.8184565 1.837779,-1.5870115 2.63331,-2.2650936 2.328395,-1.9841621 4.339353,-3.6977881 5.738541,-5.3862012 1.564079,-1.887167 2.292419,-3.676632 2.292419,-5.631699 0,-1.899153 -0.651273,-3.65141 -1.833723,-4.934027 z m 0,0"
     id="path2"
     inkscape:connector-curvature="0"
     style="fill:#1a1a1a;stroke-width:0.04514657" />
</svg>
