<?xml version="1.0" encoding="UTF-8" standalone="no"?>
<!-- Generator: Adobe Illustrator 16.0.0, SVG Export Plug-In . SVG Version: 6.00 Build 0)  -->

<svg
   xmlns:dc="http://purl.org/dc/elements/1.1/"
   xmlns:cc="http://creativecommons.org/ns#"
   xmlns:rdf="http://www.w3.org/1999/02/22-rdf-syntax-ns#"
   xmlns:svg="http://www.w3.org/2000/svg"
   xmlns="http://www.w3.org/2000/svg"
   xmlns:sodipodi="http://sodipodi.sourceforge.net/DTD/sodipodi-0.dtd"
   xmlns:inkscape="http://www.inkscape.org/namespaces/inkscape"
   version="1.1"
   id="Capa_1"
   x="0px"
   y="0px"
   width="124.524px"
   height="124.524px"
   viewBox="0 0 124.524 124.524"
   style="enable-background:new 0 0 124.524 124.524;"
   xml:space="preserve"
   sodipodi:docname="stick.svg"
   inkscape:version="0.92.5 (2060ec1f9f, 2020-04-08)"><metadata
   id="metadata41"><rdf:RDF><cc:Work
       rdf:about=""><dc:format>image/svg+xml</dc:format><dc:type
         rdf:resource="http://purl.org/dc/dcmitype/StillImage" /><dc:title></dc:title></cc:Work></rdf:RDF></metadata><defs
   id="defs39" /><sodipodi:namedview
   pagecolor="#ffffff"
   bordercolor="#666666"
   borderopacity="1"
   objecttolerance="10"
   gridtolerance="10"
   guidetolerance="10"
   inkscape:pageopacity="0"
   inkscape:pageshadow="2"
   inkscape:window-width="1330"
   inkscape:window-height="740"
   id="namedview37"
   showgrid="false"
   inkscape:zoom="3.7904339"
   inkscape:cx="63.985142"
   inkscape:cy="56.77696"
   inkscape:window-x="36"
   inkscape:window-y="0"
   inkscape:window-maximized="1"
   inkscape:current-layer="Capa_1" />

<g
   id="g6"
   transform="translate(0,-4)">
</g>
<g
   id="g8"
   transform="translate(0,-4)">
</g>
<g
   id="g10"
   transform="translate(0,-4)">
</g>
<g
   id="g12"
   transform="translate(0,-4)">
</g>
<g
   id="g14"
   transform="translate(0,-4)">
</g>
<g
   id="g16"
   transform="translate(0,-4)">
</g>
<g
   id="g18"
   transform="translate(0,-4)">
</g>
<g
   id="g20"
   transform="translate(0,-4)">
</g>
<g
   id="g22"
   transform="translate(0,-4)">
</g>
<g
   id="g24"
   transform="translate(0,-4)">
</g>
<g
   id="g26"
   transform="translate(0,-4)">
</g>
<g
   id="g28"
   transform="translate(0,-4)">
</g>
<g
   id="g30"
   transform="translate(0,-4)">
</g>
<g
   id="g32"
   transform="translate(0,-4)">
</g>
<g
   id="g34"
   transform="translate(0,-4)">
</g>
<ellipse
   ry="8.6434765"
   rx="8.7572069"
   cy="62.755779"
   cx="89.140686"
   id="path812"
   style="opacity:1;fill:#666666;fill-opacity:1;stroke:none;stroke-width:0.89467567;stroke-opacity:1" /><path
   inkscape:connector-curvature="0"
   d="m 94.772398,107.23469 a 0.41967652,0.41967652 0 0 0 -0.365129,-0.21277 h -5.497752 l 0.921711,-7.04249 a 0.4220896,0.4220896 0 0 0 -0.773577,-0.27425 l -6.685841,11.71338 a 0.41967652,0.41967652 0 0 0 0.357443,0.63949 h 5.415602 l -0.730432,7.05307 a 0.42219456,0.42219456 0 0 0 0.777559,0.25822 l 6.575379,-11.71213 a 0.41967652,0.41967652 0 0 0 0.0044,-0.42251 z"
   id="path2"
   style="fill:#666666;fill-opacity:1;stroke-width:0.10491912" /><rect
   style="opacity:1;fill:#666666;fill-opacity:1;stroke:none;stroke-width:0.86828744;stroke-opacity:1"
   id="rect916"
   width="1.7809047"
   height="99.474396"
   x="23.460241"
   y="11.963637"
   ry="0.94288599" /><rect
   style="opacity:1;fill:#666666;fill-opacity:1;stroke:none;stroke-width:0.79056937;stroke-opacity:1"
   id="rect924"
   width="33.67234"
   height="1.8655037"
   x="23.460241"
   y="109.57254"
   ry="0.66607493" /><rect
   ry="0.66607493"
   y="61.572536"
   x="23.460241"
   height="1.8655037"
   width="33.67234"
   id="rect928"
   style="opacity:1;fill:#666666;fill-opacity:1;stroke:none;stroke-width:0.79056937;stroke-opacity:1" /></svg>