<?xml version="1.0" encoding="UTF-8" standalone="no"?>
<svg
   xmlns:dc="http://purl.org/dc/elements/1.1/"
   xmlns:cc="http://creativecommons.org/ns#"
   xmlns:rdf="http://www.w3.org/1999/02/22-rdf-syntax-ns#"
   xmlns:svg="http://www.w3.org/2000/svg"
   xmlns="http://www.w3.org/2000/svg"
   xmlns:sodipodi="http://sodipodi.sourceforge.net/DTD/sodipodi-0.dtd"
   xmlns:inkscape="http://www.inkscape.org/namespaces/inkscape"
   height="30"
   width="30"
   id="svg4"
   version="1.1"
   viewBox="0 -28 30.000001 30"
   sodipodi:docname="heart-inline.svg"
   inkscape:version="0.92.5 (2060ec1f9f, 2020-04-08)">
  <sodipodi:namedview
     pagecolor="#ffffff"
     bordercolor="#666666"
     borderopacity="1"
     objecttolerance="10"
     gridtolerance="10"
     guidetolerance="10"
     inkscape:pageopacity="0"
     inkscape:pageshadow="2"
     inkscape:window-width="746"
     inkscape:window-height="480"
     id="namedview6"
     showgrid="false"
     inkscape:zoom="7.8666667"
     inkscape:cx="-1.779661"
     inkscape:cy="15"
     inkscape:window-x="36"
     inkscape:window-y="0"
     inkscape:window-maximized="0"
     inkscape:current-layer="svg4" />
  <metadata
     id="metadata10">
    <rdf:RDF>
      <cc:Work
         rdf:about="">
        <dc:format>image/svg+xml</dc:format>
        <dc:type
           rdf:resource="http://purl.org/dc/dcmitype/StillImage" />
        <dc:title></dc:title>
      </cc:Work>
    </rdf:RDF>
  </metadata>
  <defs
     id="defs8" />
  <path
     style="stroke-width:0.0573358;fill:#1a1a1a;fill-opacity:1"
     id="path2"
     d="m 14.999995,0.17931634 c -0.417924,0 -0.820843,-0.15140182 -1.134846,-0.42643417 C 12.679239,-1.2840885 11.535883,-2.2585771 10.52713,-3.1181653 l -0.0051,-0.00452 C 7.5644872,-5.6429629 5.0105799,-7.8194849 3.2336178,-9.9635304 1.2472457,-12.360437 0.32203394,-14.633036 0.32203394,-17.115723 c 0,-2.41214 0.82711376,-4.637482 2.32881916,-6.2664 1.5196229,-1.648183 3.6047648,-2.555924 5.8719927,-2.555924 1.6945422,0 3.2464152,0.535734 4.6123962,1.59219 0.689373,0.533266 1.314244,1.185911 1.864758,1.947179 0.550737,-0.761268 1.175385,-1.413913 1.864981,-1.947179 1.365981,-1.056456 2.917856,-1.59219 4.612398,-1.59219 2.267003,0 4.352371,0.907741 5.871992,2.555924 1.501705,1.628918 2.328595,3.85426 2.328595,6.2664 0,2.482687 -0.924988,4.755286 -2.911359,7.1519675 -1.776962,2.1442706 -4.330646,4.3205665 -7.287694,6.8406528 -1.010544,0.8609353 -2.155694,1.836989 -3.344291,2.87642113 C 15.820843,0.02790612 15.417701,0.17930793 15,0.17930793 Z M 8.5228408,-24.218409 c -1.7812176,0 -3.4175276,0.710873 -4.6079175,2.001824 -1.2080832,1.310438 -1.8734922,3.121885 -1.8734922,5.10087 0,2.088052 0.7760491,3.9555 2.5160565,6.054977 1.6817759,2.0293714 4.1832739,4.1610976 7.0796284,6.6294488 l 0.0053,0.00452 c 1.012559,0.8629523 2.160395,1.8412422 3.35504,2.8858295 1.201812,-1.0466041 2.351439,-2.0264664 3.366016,-2.8907585 2.89613,-2.4683512 5.397403,-4.5996266 7.079179,-6.6290038 1.739783,-2.099478 2.515832,-3.966918 2.515832,-6.05497 0,-1.978985 -0.665408,-3.790439 -1.873492,-5.100875 -1.190167,-1.290953 -2.8267,-2.001827 -4.607692,-2.001827 -1.304839,0 -2.502843,0.414791 -3.560645,1.232723 -0.94268,0.729237 -1.599355,1.651089 -1.984356,2.296118 -0.197988,0.331695 -0.546482,0.529684 -0.932379,0.529684 -0.385896,0 -0.734391,-0.197989 -0.932379,-0.529684 -0.384776,-0.645029 -1.041451,-1.566881 -1.984355,-2.296118 -1.057802,-0.817932 -2.2558068,-1.232723 -3.5604196,-1.232723 z m 0,0" />
</svg>
