<?xml version="1.0" encoding="UTF-8" standalone="no"?>
<svg
   xmlns:dc="http://purl.org/dc/elements/1.1/"
   xmlns:cc="http://creativecommons.org/ns#"
   xmlns:rdf="http://www.w3.org/1999/02/22-rdf-syntax-ns#"
   xmlns:svg="http://www.w3.org/2000/svg"
   xmlns="http://www.w3.org/2000/svg"
   xmlns:sodipodi="http://sodipodi.sourceforge.net/DTD/sodipodi-0.dtd"
   xmlns:inkscape="http://www.inkscape.org/namespaces/inkscape"
   viewBox="-42 0 30 30.000001"
   version="1.1"
   id="svg6"
   sodipodi:docname="user.svg"
   width="30"
   height="30"
   inkscape:version="0.92.5 (2060ec1f9f, 2020-04-08)">
  <metadata
     id="metadata12">
    <rdf:RDF>
      <cc:Work
         rdf:about="">
        <dc:format>image/svg+xml</dc:format>
        <dc:type
           rdf:resource="http://purl.org/dc/dcmitype/StillImage" />
        <dc:title></dc:title>
      </cc:Work>
    </rdf:RDF>
  </metadata>
  <defs
     id="defs10" />
  <sodipodi:namedview
     pagecolor="#ffffff"
     bordercolor="#666666"
     borderopacity="1"
     objecttolerance="10"
     gridtolerance="10"
     guidetolerance="10"
     inkscape:pageopacity="0"
     inkscape:pageshadow="2"
     inkscape:window-width="1330"
     inkscape:window-height="740"
     id="namedview8"
     showgrid="false"
     inkscape:zoom="7.3749859"
     inkscape:cx="16.521486"
     inkscape:cy="5.1528501"
     inkscape:window-x="36"
     inkscape:window-y="0"
     inkscape:window-maximized="1"
     inkscape:current-layer="svg6" />
  <g
     id="g929"
     transform="matrix(0.05684077,0,0,0.05684077,-39.140167,0.44876288)"
     style="fill:#1a1a1a;fill-opacity:1">
    <path
       id="path2"
       d="m 210.35156,246.63281 c 33.88281,0 63.21875,-12.15234 87.19531,-36.1289 23.96875,-23.97266 36.125,-53.30469 36.125,-87.19141 0,-33.875 -12.15234,-63.210938 -36.1289,-87.191406 C 273.56641,12.152344 244.23047,0 210.35156,0 176.46484,0 147.13281,12.152344 123.16016,36.125 99.1875,60.097656 87.03125,89.433594 87.03125,123.3125 c 0,33.88672 12.15625,63.22266 36.12891,87.19531 23.98046,23.96875 53.3164,36.125 87.1914,36.125 z M 144.37891,57.339844 c 18.39453,-18.394532 39.97265,-27.335938 65.97265,-27.335938 25.9961,0 47.57813,8.941406 65.97656,27.335938 18.39454,18.398437 27.33985,39.980468 27.33985,65.972656 0,26 -8.94531,47.57812 -27.33985,65.97656 -18.39843,18.39844 -39.98046,27.33985 -65.97656,27.33985 -25.99219,0 -47.57031,-8.94532 -65.97265,-27.33985 -18.39844,-18.39453 -27.34375,-39.97656 -27.34375,-65.97656 0,-25.992188 8.94531,-47.574219 27.34375,-65.972656 z m 0,0"
       inkscape:connector-curvature="0"
       style="fill:#1a1a1a;fill-opacity:1" />
    <path
       id="path4"
       d="m 426.12891,393.70312 c -0.69141,-9.97656 -2.08985,-20.85937 -4.14844,-32.35156 -2.07813,-11.57812 -4.75391,-22.52344 -7.95703,-32.52734 -3.3125,-10.33985 -7.8086,-20.55078 -13.375,-30.33594 -5.76953,-10.15625 -12.55078,-19 -20.16016,-26.27734 -7.95703,-7.61328 -17.69922,-13.73438 -28.96484,-18.19922 -11.22657,-4.44141 -23.66797,-6.69141 -36.97657,-6.69141 -5.22656,0 -10.28125,2.14453 -20.04296,8.5 -6.00782,3.91797 -13.03516,8.44922 -20.87891,13.46094 -6.70703,4.27344 -15.79297,8.27734 -27.01563,11.90234 -10.94921,3.54297 -22.0664,5.33985 -33.04296,5.33985 -10.96875,0 -22.08594,-1.79688 -33.04297,-5.33985 -11.21094,-3.62109 -20.30078,-7.625 -26.9961,-11.89843 -7.76953,-4.96485 -14.80078,-9.4961 -20.89843,-13.46875 -9.75391,-6.35547 -14.8086,-8.5 -20.03516,-8.5 -13.3125,0 -25.75,2.2539 -36.972656,6.69921 -11.257813,4.45704 -21.003906,10.57813 -28.96875,18.19922 -7.609375,7.28125 -14.390625,16.1211 -20.15625,26.27344 C 20.9375,308.27344 16.4375,318.48047 13.125,328.82812 9.925781,338.83203 7.25,349.77344 5.171875,361.35156 3.109375,372.82812 1.714844,383.71484 1.023438,393.71484 0.34375,403.49219 0,413.66797 0,423.94922 0,450.67578 8.496094,472.3125 25.25,488.26953 41.796875,504.01562 63.6875,512 90.316406,512 H 336.84766 c 26.62109,0 48.51171,-7.98438 65.0625,-23.73047 16.75781,-15.94531 25.2539,-37.58984 25.2539,-64.32422 -0.004,-10.3164 -0.35156,-20.49218 -1.03515,-30.24219 z m -44.90625,72.82813 c -10.9336,10.40625 -25.44922,15.46484 -44.37891,15.46484 H 90.316406 c -18.933594,0 -33.449218,-5.05859 -44.378906,-15.46093 -10.722656,-10.20704 -15.933594,-24.14063 -15.933594,-42.58594 0,-9.59375 0.316406,-19.06641 0.949219,-28.16016 0.617187,-8.92187 1.878906,-18.72265 3.75,-29.13672 1.847656,-10.28515 4.199219,-19.9375 6.996094,-28.67578 2.683593,-8.3789 6.34375,-16.67578 10.882812,-24.66797 4.332031,-7.61718 9.316407,-14.15234 14.816407,-19.41797 5.144531,-4.92578 11.628906,-8.95703 19.269531,-11.98046 7.066406,-2.79688 15.007811,-4.32813 23.628911,-4.5586 1.05078,0.5586 2.92187,1.625 5.95312,3.60156 6.16797,4.01954 13.27734,8.60547 21.13672,13.625 8.85937,5.64844 20.27344,10.75 33.91015,15.15235 13.94141,4.50781 28.16016,6.79687 42.27344,6.79687 14.11328,0 28.33594,-2.28906 42.26953,-6.79297 13.64844,-4.41015 25.0586,-9.50781 33.92969,-15.16406 8.04297,-5.14062 14.95313,-9.59375 21.12109,-13.61719 3.03125,-1.97265 4.90235,-3.04296 5.95313,-3.60156 8.625,0.23047 16.56641,1.76172 23.63672,4.5586 7.63672,3.02343 14.12109,7.05859 19.26562,11.98046 5.5,5.26172 10.48438,11.79688 14.81641,19.42188 4.54297,7.98828 8.20703,16.28906 10.88672,24.66016 2.80078,8.75 5.15625,18.39843 7,28.67578 1.86719,10.43359 3.13281,20.23828 3.75,29.14453 v 0.008 c 0.63672,9.0586 0.95703,18.52735 0.96094,28.14844 -0.004,18.44922 -5.21485,32.37891 -15.9375,42.58203 z m 0,0"
       inkscape:connector-curvature="0"
       style="fill:#1a1a1a;fill-opacity:1" />
  </g>
</svg>
