<?xml version="1.0" encoding="UTF-8" standalone="no"?>
<!-- Generator: Adobe Illustrator 23.0.1, SVG Export Plug-In . SVG Version: 6.00 Build 0)  -->

<svg
   xmlns:ns="&amp;ns_sfw;"
   xmlns:dc="http://purl.org/dc/elements/1.1/"
   xmlns:cc="http://creativecommons.org/ns#"
   xmlns:rdf="http://www.w3.org/1999/02/22-rdf-syntax-ns#"
   xmlns:svg="http://www.w3.org/2000/svg"
   xmlns="http://www.w3.org/2000/svg"
   xmlns:sodipodi="http://sodipodi.sourceforge.net/DTD/sodipodi-0.dtd"
   xmlns:inkscape="http://www.inkscape.org/namespaces/inkscape"
   version="1.1"
   id="Livello_1"
   x="0px"
   y="0px"
   viewBox="0 0 99.955091 101.97243"
   xml:space="preserve"
   sodipodi:docname="Google__G__Logo.svg"
   width="99.955093"
   height="101.97243"
   inkscape:version="0.92.3 (2405546, 2018-03-11)"><defs
   id="defs19" /><sodipodi:namedview
   pagecolor="#ffffff"
   bordercolor="#666666"
   borderopacity="1"
   objecttolerance="10"
   gridtolerance="10"
   guidetolerance="10"
   inkscape:pageopacity="0"
   inkscape:pageshadow="2"
   inkscape:window-width="1366"
   inkscape:window-height="676"
   id="namedview17"
   showgrid="false"
   fit-margin-top="0"
   fit-margin-left="0"
   fit-margin-right="0"
   fit-margin-bottom="0"
   inkscape:zoom="0.43358443"
   inkscape:cx="266.8"
   inkscape:cy="-170.1959"
   inkscape:window-x="0"
   inkscape:window-y="27"
   inkscape:window-maximized="1"
   inkscape:current-layer="Livello_1" />
<style
   type="text/css"
   id="style2">
	.st0{fill:#4285F4;}
	.st1{fill:#34A853;}
	.st2{fill:#FBBC04;}
	.st3{fill:#EA4335;}
</style>
<metadata
   id="metadata4">
	<ns:sfw>
		<ns:slices />
		<ns:sliceSourceBounds
   bottomLeftOrigin="true"
   height="544.3"
   width="533.5"
   x="0.1"
   y="110.1" />
	</ns:sfw>
<rdf:RDF><cc:Work
     rdf:about=""><dc:format>image/svg+xml</dc:format><dc:type
       rdf:resource="http://purl.org/dc/dcmitype/StillImage" /><dc:title></dc:title></cc:Work></rdf:RDF></metadata>
<g
   id="g14"
   transform="matrix(0.18733969,0,0,0.18733969,0.00936698,0.00343579)">
	<path
   class="st0"
   d="m 533.5,278.4 c 0,-18.5 -1.5,-37.1 -4.7,-55.3 H 272.1 v 104.8 h 147 c -6.1,33.8 -25.7,63.7 -54.4,82.7 v 68 h 87.7 c 51.5,-47.4 81.1,-117.4 81.1,-200.2 z"
   id="path6"
   inkscape:connector-curvature="0"
   style="fill:#4285f4" />
	<path
   class="st1"
   d="m 272.1,544.3 c 73.4,0 135.3,-24.1 180.4,-65.7 l -87.7,-68 c -24.4,16.6 -55.9,26 -92.6,26 -71,0 -131.2,-47.9 -152.8,-112.3 H 28.9 v 70.1 c 46.2,91.9 140.3,149.9 243.2,149.9 z"
   id="path8"
   inkscape:connector-curvature="0"
   style="fill:#34a853" />
	<path
   class="st2"
   d="m 119.3,324.3 c -11.4,-33.8 -11.4,-70.4 0,-104.2 V 150 H 28.9 c -38.6,76.9 -38.6,167.5 0,244.4 z"
   id="path10"
   inkscape:connector-curvature="0"
   style="fill:#fbbc04" />
	<path
   class="st3"
   d="m 272.1,107.7 c 38.8,-0.6 76.3,14 104.4,40.8 v 0 L 454.2,70.8 C 405,24.6 339.7,-0.8 272.1,0 169.2,0 75.1,58 28.9,150 l 90.4,70.1 c 21.5,-64.5 81.8,-112.4 152.8,-112.4 z"
   id="path12"
   inkscape:connector-curvature="0"
   style="fill:#ea4335" />
</g>
</svg>