<?xml version="1.0" encoding="UTF-8" standalone="no"?>
<svg
   xmlns:dc="http://purl.org/dc/elements/1.1/"
   xmlns:cc="http://creativecommons.org/ns#"
   xmlns:rdf="http://www.w3.org/1999/02/22-rdf-syntax-ns#"
   xmlns:svg="http://www.w3.org/2000/svg"
   xmlns="http://www.w3.org/2000/svg"
   xmlns:sodipodi="http://sodipodi.sourceforge.net/DTD/sodipodi-0.dtd"
   xmlns:inkscape="http://www.inkscape.org/namespaces/inkscape"
   height="20.343002"
   width="27.125141"
   xml:space="preserve"
   viewBox="0 0 27.125142 20.343003"
   y="0px"
   x="0px"
   id="Capa_1"
   version="1.1"
   sodipodi:docname="visibility-on.svg"
   inkscape:version="0.92.5 (2060ec1f9f, 2020-04-08)"><sodipodi:namedview
   pagecolor="#ffffff"
   bordercolor="#666666"
   borderopacity="1"
   objecttolerance="10"
   gridtolerance="10"
   guidetolerance="10"
   inkscape:pageopacity="0"
   inkscape:pageshadow="2"
   inkscape:window-width="1330"
   inkscape:window-height="740"
   id="namedview42"
   showgrid="false"
   inkscape:zoom="11.601041"
   inkscape:cx="2.1842811"
   inkscape:cy="10.171501"
   inkscape:window-x="36"
   inkscape:window-y="0"
   inkscape:window-maximized="1"
   inkscape:current-layer="Capa_1" /><metadata
   id="metadata67"><rdf:RDF><cc:Work
       rdf:about=""><dc:format>image/svg+xml</dc:format><dc:type
         rdf:resource="http://purl.org/dc/dcmitype/StillImage" /><dc:title></dc:title></cc:Work></rdf:RDF></metadata><defs
   id="defs65" />





<g
   transform="translate(-1.4374291,-486.82948)"
   id="g32">
</g>
<g
   transform="translate(-1.4374291,-486.82948)"
   id="g34">
</g>
<g
   transform="translate(-1.4374291,-486.82948)"
   id="g36">
</g>
<g
   transform="translate(-1.4374291,-486.82948)"
   id="g38">
</g>
<g
   transform="translate(-1.4374291,-486.82948)"
   id="g40">
</g>
<g
   transform="translate(-1.4374291,-486.82948)"
   id="g42">
</g>
<g
   transform="translate(-1.4374291,-486.82948)"
   id="g44">
</g>
<g
   transform="translate(-1.4374291,-486.82948)"
   id="g46">
</g>
<g
   transform="translate(-1.4374291,-486.82948)"
   id="g48">
</g>
<g
   transform="translate(-1.4374291,-486.82948)"
   id="g50">
</g>
<g
   transform="translate(-1.4374291,-486.82948)"
   id="g52">
</g>
<g
   transform="translate(-1.4374291,-486.82948)"
   id="g54">
</g>
<g
   transform="translate(-1.4374291,-486.82948)"
   id="g56">
</g>
<g
   transform="translate(-1.4374291,-486.82948)"
   id="g58">
</g>
<g
   transform="translate(-1.4374291,-486.82948)"
   id="g60">
</g>
<g
   style="fill:#000000;fill-opacity:1"
   transform="matrix(0.05209439,0,0,0.05209439,0.22661869,-3.1644283)"
   id="g984"><g
     style="fill:#000000;fill-opacity:1"
     id="g918">
	<g
   style="fill:#000000;fill-opacity:1"
   id="g916">
		<path
   style="fill:#000000;fill-opacity:1"
   d="M 510.096,249.937 C 506.064,244.07 409.168,106.662 255.995,106.662 124.56,106.662 7.44,243.281 2.512,249.105 c -3.349,3.968 -3.349,9.792 0,13.781 4.928,5.824 122.048,142.443 253.483,142.443 131.435,0 248.554,-136.619 253.482,-142.443 3.094,-3.669 3.371,-8.981 0.619,-12.949 z M 255.995,383.996 c -105.365,0 -205.547,-100.48 -230.997,-128 25.408,-27.541 125.483,-128 230.997,-128 123.285,0 210.304,100.331 231.552,127.424 -24.534,26.645 -125.291,128.576 -231.552,128.576 z"
   id="path914" />
	</g>
</g><g
     style="fill:#000000;fill-opacity:1"
     id="g924">
	<g
   style="fill:#000000;fill-opacity:1"
   id="g922">
		<path
   style="fill:#000000;fill-opacity:1"
   d="m 255.995,170.662 c -47.061,0 -85.333,38.272 -85.333,85.333 0,47.061 38.272,85.333 85.333,85.333 47.061,0 85.333,-38.272 85.333,-85.333 0,-47.061 -38.272,-85.333 -85.333,-85.333 z m 0,149.334 c -35.285,0 -64,-28.715 -64,-64 0,-35.285 28.715,-64 64,-64 35.285,0 64,28.715 64,64 0,35.285 -28.715,64 -64,64 z"
   id="path920" />
	</g>
</g><g
     style="fill:#000000;fill-opacity:1"
     id="g926">
</g><g
     style="fill:#000000;fill-opacity:1"
     id="g928">
</g><g
     style="fill:#000000;fill-opacity:1"
     id="g930">
</g><g
     style="fill:#000000;fill-opacity:1"
     id="g932">
</g><g
     style="fill:#000000;fill-opacity:1"
     id="g934">
</g><g
     style="fill:#000000;fill-opacity:1"
     id="g936">
</g><g
     style="fill:#000000;fill-opacity:1"
     id="g938">
</g><g
     style="fill:#000000;fill-opacity:1"
     id="g940">
</g><g
     style="fill:#000000;fill-opacity:1"
     id="g942">
</g><g
     style="fill:#000000;fill-opacity:1"
     id="g944">
</g><g
     style="fill:#000000;fill-opacity:1"
     id="g946">
</g><g
     style="fill:#000000;fill-opacity:1"
     id="g948">
</g><g
     style="fill:#000000;fill-opacity:1"
     id="g950">
</g><g
     style="fill:#000000;fill-opacity:1"
     id="g952">
</g><g
     style="fill:#000000;fill-opacity:1"
     id="g954">
</g></g></svg>