<?xml version="1.0" encoding="UTF-8" standalone="no"?>
<!-- Generator: Adobe Illustrator 19.0.0, SVG Export Plug-In . SVG Version: 6.00 Build 0)  -->

<svg
   xmlns:dc="http://purl.org/dc/elements/1.1/"
   xmlns:cc="http://creativecommons.org/ns#"
   xmlns:rdf="http://www.w3.org/1999/02/22-rdf-syntax-ns#"
   xmlns:svg="http://www.w3.org/2000/svg"
   xmlns="http://www.w3.org/2000/svg"
   xmlns:sodipodi="http://sodipodi.sourceforge.net/DTD/sodipodi-0.dtd"
   xmlns:inkscape="http://www.inkscape.org/namespaces/inkscape"
   version="1.1"
   id="Capa_1"
   x="0px"
   y="0px"
   viewBox="0 0 27.125142 20.343003"
   xml:space="preserve"
   sodipodi:docname="visibility.svg"
   width="27.125141"
   height="20.343002"
   inkscape:version="0.92.5 (2060ec1f9f, 2020-04-08)"><metadata
   id="metadata67"><rdf:RDF><cc:Work
       rdf:about=""><dc:format>image/svg+xml</dc:format><dc:type
         rdf:resource="http://purl.org/dc/dcmitype/StillImage" /><dc:title></dc:title></cc:Work></rdf:RDF></metadata><defs
   id="defs65" /><sodipodi:namedview
   pagecolor="#ffffff"
   bordercolor="#666666"
   borderopacity="1"
   objecttolerance="10"
   gridtolerance="10"
   guidetolerance="10"
   inkscape:pageopacity="0"
   inkscape:pageshadow="2"
   inkscape:window-width="1330"
   inkscape:window-height="740"
   id="namedview63"
   showgrid="false"
   fit-margin-top="0"
   fit-margin-left="0"
   fit-margin-right="0"
   fit-margin-bottom="0"
   inkscape:zoom="10.429805"
   inkscape:cx="-7.6015411"
   inkscape:cy="16.164572"
   inkscape:window-x="36"
   inkscape:window-y="0"
   inkscape:window-maximized="1"
   inkscape:current-layer="Capa_1" />




<g
   id="g892"
   transform="matrix(0.05297864,0,0,0.05297864,2.3844232e-5,-3.3910568)"
   style="fill:#000000"><g
     style="fill:#000000;fill-opacity:1"
     id="g6">
	<g
   style="fill:#000000;fill-opacity:1"
   id="g4">
		<path
   style="fill:#000000;fill-opacity:1"
   id="path2"
   d="m 316.332,195.662 c -4.16,-4.16 -10.923,-4.16 -15.083,0 -4.16,4.16 -4.16,10.944 0,15.083 12.075,12.075 18.752,28.139 18.752,45.248 0,35.285 -28.715,64 -64,64 -17.109,0 -33.173,-6.656 -45.248,-18.752 -4.16,-4.16 -10.923,-4.16 -15.083,0 -4.16,4.139 -4.16,10.923 0,15.083 16.085,16.128 37.525,25.003 60.331,25.003 47.061,0 85.333,-38.272 85.333,-85.333 0,-22.807 -8.874,-44.247 -25.002,-60.332 z"
   inkscape:connector-curvature="0" />
	</g>
</g><g
     style="fill:#000000;fill-opacity:1"
     id="g12">
	<g
   style="fill:#000000;fill-opacity:1"
   id="g10">
		<path
   style="fill:#000000;fill-opacity:1"
   id="path8"
   d="m 270.87,172.131 c -4.843,-0.853 -9.792,-1.472 -14.869,-1.472 -47.061,0 -85.333,38.272 -85.333,85.333 0,5.077 0.619,10.027 1.493,14.869 0.917,5.163 5.419,8.811 10.475,8.811 0.619,0 1.237,-0.043 1.877,-0.171 5.781,-1.024 9.664,-6.571 8.64,-12.352 -0.661,-3.627 -1.152,-7.317 -1.152,-11.157 0,-35.285 28.715,-64 64,-64 3.84,0 7.531,0.491 11.157,1.131 5.675,1.152 11.328,-2.859 12.352,-8.64 1.024,-5.781 -2.858,-11.328 -8.64,-12.352 z"
   inkscape:connector-curvature="0" />
	</g>
</g><g
     style="fill:#000000;fill-opacity:1"
     id="g18">
	<g
   style="fill:#000000;fill-opacity:1"
   id="g16">
		<path
   style="fill:#000000;fill-opacity:1"
   id="path14"
   d="m 509.462,249.102 c -2.411,-2.859 -60.117,-70.208 -139.712,-111.445 -5.163,-2.709 -11.669,-0.661 -14.379,4.587 -2.709,5.227 -0.661,11.669 4.587,14.379 61.312,31.744 110.293,81.28 127.04,99.371 -25.429,27.541 -125.504,128 -230.997,128 -35.797,0 -71.872,-8.64 -107.264,-25.707 -5.248,-2.581 -11.669,-0.341 -14.229,4.971 -2.581,5.291 -0.341,11.669 4.971,14.229 38.293,18.496 77.504,27.84 116.523,27.84 131.435,0 248.555,-136.619 253.483,-142.443 3.369,-3.969 3.348,-9.793 -0.023,-13.782 z"
   inkscape:connector-curvature="0" />
	</g>
</g><g
     style="fill:#000000;fill-opacity:1"
     id="g24">
	<g
   style="fill:#000000;fill-opacity:1"
   id="g22">
		<path
   style="fill:#000000;fill-opacity:1"
   id="path20"
   d="m 325.996,118.947 c -24.277,-8.171 -47.829,-12.288 -69.995,-12.288 -131.435,0 -248.555,136.619 -253.483,142.443 -3.115,3.669 -3.371,9.003 -0.597,12.992 1.472,2.112 36.736,52.181 97.856,92.779 1.813,1.216 3.84,1.792 5.888,1.792 3.435,0 6.827,-1.664 8.875,-4.8 3.264,-4.885 1.92,-11.52 -2.987,-14.763 C 66.668,307.257 35.948,271.225 24.449,256.569 49.004,229.902 149.74,127.993 256.001,127.993 c 19.861,0 41.131,3.755 63.189,11.157 5.589,2.005 11.648,-1.088 13.504,-6.699 1.878,-5.589 -1.109,-11.626 -6.698,-13.504 z"
   inkscape:connector-curvature="0" />
	</g>
</g><g
     style="fill:#000000;fill-opacity:1"
     id="g30">
	<g
   style="fill:#000000;fill-opacity:1"
   id="g28">
		<path
   style="fill:#000000;fill-opacity:1"
   id="path26"
   d="m 444.865,67.128 c -4.16,-4.16 -10.923,-4.16 -15.083,0 L 67.116,429.795 c -4.16,4.16 -4.16,10.923 0,15.083 2.091,2.069 4.821,3.115 7.552,3.115 2.731,0 5.461,-1.045 7.531,-3.115 L 444.865,82.211 c 4.16,-4.16 4.16,-10.923 0,-15.083 z"
   inkscape:connector-curvature="0" />
	</g>
</g></g>
<g
   id="g32"
   transform="translate(-1.4374291,-486.82948)">
</g>
<g
   id="g34"
   transform="translate(-1.4374291,-486.82948)">
</g>
<g
   id="g36"
   transform="translate(-1.4374291,-486.82948)">
</g>
<g
   id="g38"
   transform="translate(-1.4374291,-486.82948)">
</g>
<g
   id="g40"
   transform="translate(-1.4374291,-486.82948)">
</g>
<g
   id="g42"
   transform="translate(-1.4374291,-486.82948)">
</g>
<g
   id="g44"
   transform="translate(-1.4374291,-486.82948)">
</g>
<g
   id="g46"
   transform="translate(-1.4374291,-486.82948)">
</g>
<g
   id="g48"
   transform="translate(-1.4374291,-486.82948)">
</g>
<g
   id="g50"
   transform="translate(-1.4374291,-486.82948)">
</g>
<g
   id="g52"
   transform="translate(-1.4374291,-486.82948)">
</g>
<g
   id="g54"
   transform="translate(-1.4374291,-486.82948)">
</g>
<g
   id="g56"
   transform="translate(-1.4374291,-486.82948)">
</g>
<g
   id="g58"
   transform="translate(-1.4374291,-486.82948)">
</g>
<g
   id="g60"
   transform="translate(-1.4374291,-486.82948)">
</g>
</svg>