<?xml version="1.0" encoding="UTF-8" standalone="no"?>
<svg
   xmlns:dc="http://purl.org/dc/elements/1.1/"
   xmlns:cc="http://creativecommons.org/ns#"
   xmlns:rdf="http://www.w3.org/1999/02/22-rdf-syntax-ns#"
   xmlns:svg="http://www.w3.org/2000/svg"
   xmlns="http://www.w3.org/2000/svg"
   xmlns:sodipodi="http://sodipodi.sourceforge.net/DTD/sodipodi-0.dtd"
   xmlns:inkscape="http://www.inkscape.org/namespaces/inkscape"
   height="30"
   width="30"
   id="svg4"
   version="1.1"
   viewBox="0 -28 30.000001 30"
   sodipodi:docname="love-fullfilled.svg"
   inkscape:version="0.92.5 (2060ec1f9f, 2020-04-08)">
  <sodipodi:namedview
     pagecolor="#ffffff"
     bordercolor="#666666"
     borderopacity="1"
     objecttolerance="10"
     gridtolerance="10"
     guidetolerance="10"
     inkscape:pageopacity="0"
     inkscape:pageshadow="2"
     inkscape:window-width="704"
     inkscape:window-height="480"
     id="namedview6"
     showgrid="false"
     inkscape:zoom="7.8666667"
     inkscape:cx="-1.779661"
     inkscape:cy="15"
     inkscape:window-x="36"
     inkscape:window-y="0"
     inkscape:window-maximized="0"
     inkscape:current-layer="svg4" />
  <metadata
     id="metadata10">
    <rdf:RDF>
      <cc:Work
         rdf:about="">
        <dc:format>image/svg+xml</dc:format>
        <dc:type
           rdf:resource="http://purl.org/dc/dcmitype/StillImage" />
        <dc:title></dc:title>
      </cc:Work>
    </rdf:RDF>
  </metadata>
  <defs
     id="defs8" />
  <path
     style="stroke-width:0.05670969;fill:#1a1a1a;fill-opacity:1"
     id="path2"
     d="m 27.214291,-23.388062 c -1.503027,-1.630182 -3.565399,-2.528014 -5.807647,-2.528014 -1.676037,0 -3.210964,0.529886 -4.562249,1.574801 -0.681846,0.527449 -1.299671,1.172745 -1.844394,1.92592 -0.544502,-0.752958 -1.162548,-1.398471 -1.844615,-1.92592 -1.351064,-1.044915 -2.885992,-1.574801 -4.5620292,-1.574801 -2.2422481,0 -4.3048411,0.897832 -5.807869,2.528014 -1.4850855,1.611129 -2.30316668,3.812178 -2.30316668,6.197969 0,2.455576 0.91510828,4.703359 2.87978888,7.074089 1.7575572,2.1206338 4.283575,4.2733882 7.208775,6.7661792 0.998844,0.8513103 2.131044,1.8162565 3.306663,2.84412015 0.310573,0.27202978 0.709092,0.42178026 1.122453,0.42178026 0.413139,0 0.811879,-0.14975048 1.12201,-0.42133905 1.175618,-1.02808236 2.308482,-1.99347446 3.307769,-2.84522506 2.924757,-2.4923498 5.450776,-4.6448817 7.208331,-6.7657345 1.964682,-2.370511 2.879568,-4.618294 2.879568,-7.074088 0,-2.385573 -0.818083,-4.586621 -2.303388,-6.197751 z m 0,0" />
</svg>
