<?xml version="1.0" encoding="UTF-8" standalone="no"?>
<svg
   xmlns:dc="http://purl.org/dc/elements/1.1/"
   xmlns:cc="http://creativecommons.org/ns#"
   xmlns:rdf="http://www.w3.org/1999/02/22-rdf-syntax-ns#"
   xmlns:svg="http://www.w3.org/2000/svg"
   xmlns="http://www.w3.org/2000/svg"
   xmlns:sodipodi="http://sodipodi.sourceforge.net/DTD/sodipodi-0.dtd"
   xmlns:inkscape="http://www.inkscape.org/namespaces/inkscape"
   viewBox="0 -28 30.000001 30"
   version="1.1"
   id="svg4"
   sodipodi:docname="love.svg"
   width="30"
   height="30"
   inkscape:version="0.92.5 (2060ec1f9f, 2020-04-08)">
  <metadata
     id="metadata10">
    <rdf:RDF>
      <cc:Work
         rdf:about="">
        <dc:format>image/svg+xml</dc:format>
        <dc:type
           rdf:resource="http://purl.org/dc/dcmitype/StillImage" />
        <dc:title></dc:title>
      </cc:Work>
    </rdf:RDF>
  </metadata>
  <defs
     id="defs8" />
  <sodipodi:namedview
     pagecolor="#ffffff"
     bordercolor="#666666"
     borderopacity="1"
     objecttolerance="10"
     gridtolerance="10"
     guidetolerance="10"
     inkscape:pageopacity="0"
     inkscape:pageshadow="2"
     inkscape:window-width="1330"
     inkscape:window-height="740"
     id="namedview6"
     showgrid="false"
     inkscape:zoom="2.6074563"
     inkscape:cx="7.6930971"
     inkscape:cy="36.074078"
     inkscape:window-x="36"
     inkscape:window-y="0"
     inkscape:window-maximized="1"
     inkscape:current-layer="svg4" />
  <path
     d="m 27.022975,-23.860205 c -1.398553,-1.516871 -3.31757,-2.352295 -5.40396,-2.352295 -1.559536,0 -2.987771,0.493049 -4.245129,1.465341 -0.634451,0.490782 -1.20933,1.091222 -1.716189,1.792044 -0.506655,-0.700618 -1.081741,-1.301262 -1.716398,-1.792044 -1.257152,-0.972292 -2.685387,-1.465341 -4.2449231,-1.465341 -2.0863898,0 -4.0056129,0.835424 -5.4041661,2.352295 -1.3818571,1.499134 -2.1430741,3.547188 -2.1430741,5.76715 0,2.284886 0.8514994,4.376429 2.6796156,6.582371 1.6353901,1.973229 3.985825,3.9763442 6.7076957,6.2958602 0.929415,0.7921305 1.982916,1.6900065 3.076818,2.6464304 0.288985,0.2531202 0.659804,0.3924537 1.044432,0.3924537 0.384421,0 0.755444,-0.1393335 1.044018,-0.3920446 1.093901,-0.9566195 2.14802,-1.8549136 3.077847,-2.6474622 2.72146,-2.3191068 5.071894,-4.3220085 6.707284,-6.2954415 1.828116,-2.205738 2.679409,-4.297281 2.679409,-6.582381 0,-2.219748 -0.761216,-4.267802 -2.14328,-5.766936 z m 0,0"
     id="path2"
     inkscape:connector-curvature="0"
     style="fill:#333333;stroke-width:0.05276781" />
</svg>
