<?xml version="1.0" encoding="UTF-8" standalone="no"?>
<svg
   xmlns:dc="http://purl.org/dc/elements/1.1/"
   xmlns:cc="http://creativecommons.org/ns#"
   xmlns:rdf="http://www.w3.org/1999/02/22-rdf-syntax-ns#"
   xmlns:svg="http://www.w3.org/2000/svg"
   xmlns="http://www.w3.org/2000/svg"
   xmlns:sodipodi="http://sodipodi.sourceforge.net/DTD/sodipodi-0.dtd"
   xmlns:inkscape="http://www.inkscape.org/namespaces/inkscape"
   viewBox="0 -28 30.000001 30"
   version="1.1"
   id="svg4"
   sodipodi:docname="1077086.svg"
   width="30"
   height="30"
   inkscape:version="0.92.3 (2405546, 2018-03-11)">
  <metadata
     id="metadata10">
    <rdf:RDF>
      <cc:Work
         rdf:about="">
        <dc:format>image/svg+xml</dc:format>
        <dc:type
           rdf:resource="http://purl.org/dc/dcmitype/StillImage" />
        <dc:title></dc:title>
      </cc:Work>
    </rdf:RDF>
  </metadata>
  <defs
     id="defs8" />
  <sodipodi:namedview
     pagecolor="#ffffff"
     bordercolor="#666666"
     borderopacity="1"
     objecttolerance="10"
     gridtolerance="10"
     guidetolerance="10"
     inkscape:pageopacity="0"
     inkscape:pageshadow="2"
     inkscape:window-width="1366"
     inkscape:window-height="676"
     id="namedview6"
     showgrid="false"
     inkscape:zoom="2.6074563"
     inkscape:cx="14.404619"
     inkscape:cy="36.074078"
     inkscape:window-x="0"
     inkscape:window-y="27"
     inkscape:window-maximized="1"
     inkscape:current-layer="svg4" />
  <path
     d="m 27.494613,-23.626465 c -1.537523,-1.667598 -3.647227,-2.586035 -5.940936,-2.586035 -1.714502,0 -3.284656,0.542042 -4.666954,1.610948 -0.697494,0.539549 -1.329497,1.199653 -1.886722,1.970113 -0.556999,-0.770236 -1.18923,-1.430564 -1.886951,-1.970113 -1.382071,-1.068906 -2.952225,-1.610948 -4.6667279,-1.610948 -2.293708,0 -4.4036384,0.918437 -5.9411616,2.586035 -1.51916803,1.648099 -2.35602475,3.899662 -2.35602475,6.340214 0,2.511929 0.93611025,4.811302 2.94588075,7.236442 1.7978938,2.1693019 4.3818843,4.371461 7.3742195,6.9214602 1.021768,0.8708421 2.179952,1.8579373 3.382551,2.90939806 0.317701,0.27827206 0.725367,0.43145077 1.148214,0.43145077 0.42262,0 0.830511,-0.15317871 1.147759,-0.43100093 1.202599,-1.0516759 2.361463,-2.0392307 3.383684,-2.9105324 2.991883,-2.5495494 5.575872,-4.7514738 7.373766,-6.9210007 2.00977,-2.424915 2.945654,-4.724288 2.945654,-7.236452 0,-2.440317 -0.836856,-4.69188 -2.356251,-6.339979 z m 0,0"
     id="path2"
     inkscape:connector-curvature="0"
     style="stroke-width:0.05801119;fill:#333333" />
</svg>
