<?xml version="1.0" encoding="UTF-8" standalone="no"?>
<svg
   xmlns:dc="http://purl.org/dc/elements/1.1/"
   xmlns:cc="http://creativecommons.org/ns#"
   xmlns:rdf="http://www.w3.org/1999/02/22-rdf-syntax-ns#"
   xmlns:svg="http://www.w3.org/2000/svg"
   xmlns="http://www.w3.org/2000/svg"
   xmlns:sodipodi="http://sodipodi.sourceforge.net/DTD/sodipodi-0.dtd"
   xmlns:inkscape="http://www.inkscape.org/namespaces/inkscape"
   xml:space="preserve"
   viewBox="0 0 30 30"
   y="0px"
   x="0px"
   id="Capa_1"
   version="1.1"
   sodipodi:docname="company-logo.svg"
   width="30"
   height="30"
   inkscape:version="0.92.5 (2060ec1f9f, 2020-04-08)"><sodipodi:namedview
   pagecolor="#ffffff"
   bordercolor="#666666"
   borderopacity="1"
   objecttolerance="10"
   gridtolerance="10"
   guidetolerance="10"
   inkscape:pageopacity="0"
   inkscape:pageshadow="2"
   inkscape:window-width="1330"
   inkscape:window-height="740"
   id="namedview21"
   showgrid="false"
   inkscape:zoom="7.375"
   inkscape:cx="12.868922"
   inkscape:cy="15.562389"
   inkscape:window-x="36"
   inkscape:window-y="0"
   inkscape:window-maximized="1"
   inkscape:current-layer="Capa_1" /><metadata
   id="metadata39"><rdf:RDF><cc:Work
       rdf:about=""><dc:format>image/svg+xml</dc:format><dc:type
         rdf:resource="http://purl.org/dc/dcmitype/StillImage" /><dc:title></dc:title></cc:Work></rdf:RDF></metadata><defs
   id="defs37" />
<path
   id="path2"
   d="m 1.0391129,23.657496 c 1.038341,-0.455474 2.1447414,-0.757377 3.2982598,-0.903965 -1.1866758,0.708511 -2.0923879,1.821895 -2.5181957,3.163884 1.1064005,-0.659653 2.3279784,-1.125595 3.6298309,-1.385619 1.0505568,1.118617 2.547862,1.811427 4.1812862,1.811427 3.1691209,0 5.7204719,-2.572292 5.7204719,-5.72571 0,-0.453727 -0.03838,-0.890004 -0.132628,-1.305343 4.758918,0.232101 8.969871,2.512961 11.798696,5.987476 0.493865,-0.856849 0.783553,-1.837604 0.783553,-2.893395 0,-1.982445 -1.020889,-3.739772 -2.542625,-4.75717 0.919673,0.01745 1.821894,0.284451 2.586254,0.705025 0,-0.01745 0,-0.04014 0,-0.06283 0,-2.781707 -1.984191,-5.092235 -4.586152,-5.624495 0.465945,-0.127393 0.973772,-0.188469 1.500796,-0.188469 0.366473,0 0.736436,0.02094 1.083714,0.09773 -0.741673,-2.266898 -2.846277,-3.9334793 -5.348765,-3.9875775 1.947544,-1.5234834 4.420365,-2.4414103 7.097365,-2.4414103 0.469436,0 0.919675,0.020942 1.369913,0.078525 -2.535645,-1.6351689 -5.540727,-2.5688026 -8.781399,-2.5688026 -10.5334879,0 -16.2923539,8.7255544 -16.2923539,16.2888654 0,0.253042 0.00874,0.497357 0.020943,0.739926 -1.1360678,0.806241 -2.0906432,1.813172 -2.8689628,2.971924 z"
   style="fill:#1e1f3e;fill-opacity:1;stroke-width:0.05453471"
   inkscape:connector-curvature="0" />
<g
   id="g4"
   transform="translate(0,-482)">
</g>
<g
   id="g6"
   transform="translate(0,-482)">
</g>
<g
   id="g8"
   transform="translate(0,-482)">
</g>
<g
   id="g10"
   transform="translate(0,-482)">
</g>
<g
   id="g12"
   transform="translate(0,-482)">
</g>
<g
   id="g14"
   transform="translate(0,-482)">
</g>
<g
   id="g16"
   transform="translate(0,-482)">
</g>
<g
   id="g18"
   transform="translate(0,-482)">
</g>
<g
   id="g20"
   transform="translate(0,-482)">
</g>
<g
   id="g22"
   transform="translate(0,-482)">
</g>
<g
   id="g24"
   transform="translate(0,-482)">
</g>
<g
   id="g26"
   transform="translate(0,-482)">
</g>
<g
   id="g28"
   transform="translate(0,-482)">
</g>
<g
   id="g30"
   transform="translate(0,-482)">
</g>
<g
   id="g32"
   transform="translate(0,-482)">
</g>
</svg>